<svg width="381" height="381" xmlns="http://www.w3.org/2000/svg" xmlns:xlink="http://www.w3.org/1999/xlink" xml:space="preserve" overflow="hidden"><g transform="translate(-754 -81)"><path d="M904.812 299.281C904.812 314.68 916.719 327.062 931.324 327.062L961.169 327.062C973.869 327.062 984.188 316.268 984.188 302.774 984.188 288.328 977.838 283.089 968.471 279.755L920.688 263.086C911.321 259.753 904.971 254.673 904.971 240.068 904.971 226.732 915.29 215.779 927.99 215.779L957.835 215.779C972.44 215.779 984.346 228.161 984.346 243.56" stroke="#2F3755" stroke-width="18.9317" stroke-linecap="round" stroke-linejoin="round" fill="none"/><path d="M944.5 200.062 944.5 342.938" stroke="#2F3755" stroke-width="18.9317" stroke-linecap="round" stroke-linejoin="round" fill="none"/><path d="M1103.25 271.5C1103.25 359.13 1032.13 430.25 944.5 430.25 856.87 430.25 785.75 359.13 785.75 271.5 785.75 183.87 856.87 112.75 944.5 112.75" stroke="#2F3755" stroke-width="18.9317" stroke-linecap="round" stroke-linejoin="round" fill="none"/><path d="M1103.25 176.25 1103.25 112.75 1039.75 112.75" stroke="#2F3755" stroke-width="18.9317" stroke-linecap="round" stroke-linejoin="round" fill="none"/><path d="M1023.88 192.125 1103.25 112.75" stroke="#2F3755" stroke-width="18.9317" stroke-linecap="round" stroke-linejoin="round" fill="none"/></g></svg>