<svg width="96" height="96" xmlns="http://www.w3.org/2000/svg" xmlns:xlink="http://www.w3.org/1999/xlink" xml:space="preserve" overflow="hidden"><g transform="translate(-596 -312)"><path d="M680 331C680.552 331 681 330.552 681 330 681 329.448 680.552 329 680 329L645 329 645 325C645 324.448 644.552 324 644 324 643.448 324 643 324.448 643 325L643 329 608 329C607.448 329 607 329.448 607 330 607 330.552 607.448 331 608 331L612 331 612 372 608 372C607.448 372 607 372.448 607 373 607 373.552 607.448 374 608 374L641.586 374 623.793 391.793C623.409 392.19 623.42 392.823 623.818 393.207 624.205 393.581 624.82 393.581 625.207 393.207L643 375.414 643 396C643 396.552 643.448 397 644 397 644.552 397 645 396.552 645 396L645 375.414 662.793 393.207C663.19 393.591 663.823 393.58 664.207 393.182 664.581 392.795 664.581 392.18 664.207 391.793L646.414 374 680 374C680.552 374 681 373.552 681 373 681 372.448 680.552 372 680 372L676 372 676 331ZM674 372 614 372 614 331 674 331Z" stroke="#2D3850"/><path d="M660 338 652 338 652 366 660 366ZM658 364 654 364 654 340 658 340Z" stroke="#2D3850"/><path d="M640 366 648 366 648 347 640 347ZM642 349 646 349 646 364 642 364Z" stroke="#2D3850"/><path d="M628 366 636 366 636 354 628 354ZM630 356 634 356 634 364 630 364Z" stroke="#2D3850"/></g></svg>