<svg width="96" height="96" xmlns="http://www.w3.org/2000/svg" xmlns:xlink="http://www.w3.org/1999/xlink" xml:space="preserve" overflow="hidden"><g transform="translate(-480 -190)"><path d="M558 216 546 216 546 213 548 213 548 204 533 204 533 213 535 213 535 216 533 216 533 221 523 221 523 216 521 216 521 213 523 213 523 204 508 204 508 213 510 213 510 216 498 216 492 249 492 268C492.007 270.206 493.794 271.993 496 272L511 272C513.206 271.993 514.993 270.206 515 268L515 244 519 244C521.206 243.993 522.993 242.206 523 240L523 239 533 239 533 240C533.007 242.206 534.794 243.993 537 244L541 244 541 268C541.007 270.206 542.794 271.993 545 272L560 272C562.206 271.993 563.993 270.206 564 268L564 249ZM510 206 521 206 521 211 510 211ZM512 213 519 213 519 216 512 216ZM513 268C513 269.105 512.105 270 511 270L496 270C494.895 270 494 269.105 494 268L494 249.18 494.942 244 513 244ZM521 240C521 241.105 520.105 242 519 242L495.306 242 499.669 218 521 218ZM523 237 523 223 533 223 533 237ZM535 206 546 206 546 211 535 211ZM537 213 544 213 544 216 537 216ZM537 242C535.895 242 535 241.105 535 240L535 218 556.331 218 560.694 242 537 242ZM562 268C562 269.105 561.105 270 560 270L545 270C543.895 270 543 269.105 543 268L543 244 561.058 244 562 249.18Z" stroke="#2F3755"/></g></svg>