<svg width="96" height="96" xmlns="http://www.w3.org/2000/svg" xmlns:xlink="http://www.w3.org/1999/xlink" xml:space="preserve" overflow="hidden"><g transform="translate(-417 -303)"><path d="M500.29 314.436C497.117 309.731 490.731 308.489 486.026 311.662 484.931 312.4 483.989 313.342 483.251 314.436 481.334 317.265 480.929 320.855 482.168 324.039L486.846 334.381 490.884 342.851C491.135 343.34 491.735 343.534 492.225 343.283 492.41 343.188 492.562 343.036 492.657 342.851L496.695 334.381 501.373 324.039C502.612 320.855 502.207 317.265 500.29 314.436ZM499.526 323.27 494.89 333.52 491.78 340.044C491.775 340.054 491.767 340.054 491.762 340.044L488.668 333.556 484.015 323.27C483.034 320.706 483.368 317.824 484.911 315.552 487.467 311.764 492.611 310.765 496.4 313.322 497.284 313.918 498.044 314.68 498.639 315.566 500.175 317.835 500.506 320.711 499.526 323.27Z" stroke="#2F3755"/><path d="M430.216 352.006C427.84 355.51 427.339 359.957 428.873 363.903L434.669 376.715 439.672 387.208C439.983 387.815 440.727 388.055 441.333 387.744 441.563 387.626 441.75 387.439 441.868 387.208L446.871 376.715 452.667 363.903C454.202 359.957 453.7 355.51 451.325 352.006 447.395 346.177 439.483 344.637 433.654 348.568 432.297 349.482 431.13 350.65 430.216 352.006ZM449.674 353.135C451.668 356.08 452.096 359.814 450.82 363.133L445.066 375.854 440.779 384.845C440.774 384.855 440.766 384.855 440.761 384.845L436.491 375.89 430.72 363.133C429.443 359.808 429.875 356.069 431.875 353.122 435.189 348.209 441.858 346.913 446.771 350.228 447.917 351.001 448.903 351.988 449.674 353.135Z" stroke="#2F3755"/><path d="M460.863 385.888C461.853 385.877 462.86 385.86 463.878 385.836L463.83 383.836C462.821 383.86 461.822 383.877 460.839 383.888Z" stroke="#2F3755"/><path d="M468.821 347.313 467.924 345.525C466.967 345.996 466.059 346.558 465.21 347.204L466.436 348.785C467.181 348.219 467.98 347.726 468.821 347.313Z" stroke="#2F3755"/><path d="M464.625 350.701 462.936 349.63C462.303 350.612 461.932 351.739 461.859 352.905L463.855 353.025C463.906 352.197 464.171 351.396 464.625 350.701Z" stroke="#2F3755"/><path d="M457.846 383.909 456.832 383.91 454.851 383.906 454.843 385.906 456.832 385.91 457.85 385.909 457.846 383.909Z" stroke="#2F3755"/><path d="M476.65 361.409C475.67 361.163 474.7 360.918 473.757 360.662L473.234 362.593C474.19 362.851 475.171 363.1 476.163 363.349Z" stroke="#2F3755"/><path d="M448.847 383.88 448.847 385.88C449.763 385.88 450.767 385.885 451.841 385.891L451.853 383.891C450.774 383.885 449.767 383.88 448.847 383.88Z" stroke="#2F3755"/><path d="M464.628 358.926 465.881 357.367C465.209 356.854 464.666 356.193 464.293 355.434L462.482 356.286C462.987 357.318 463.721 358.221 464.628 358.926Z" stroke="#2F3755"/><path d="M476.725 342.674 477.132 344.632C478.064 344.439 479.043 344.261 480.043 344.103L479.731 342.127C478.7 342.29 477.689 342.474 476.725 342.674Z" stroke="#2F3755"/><path d="M482.757 341.717 482.982 343.705C484.715 343.508 485.852 343.445 485.9 343.443L485.792 341.445C485.667 341.452 484.517 341.517 482.757 341.717Z" stroke="#2F3755"/><path d="M494.694 375.092C494.698 374.218 494.601 373.348 494.406 372.496L492.459 372.952C492.619 373.653 492.698 374.37 492.694 375.089 492.694 375.251 492.685 375.412 492.668 375.573L494.655 375.794C494.681 375.561 494.694 375.326 494.694 375.092Z" stroke="#2F3755"/><path d="M484.444 381.588 484.967 383.518C485.968 383.251 486.955 382.932 487.922 382.561L487.198 380.696C486.296 381.042 485.377 381.339 484.444 381.588Z" stroke="#2F3755"/><path d="M489.731 379.469 490.78 381.172C491.74 380.603 492.593 379.872 493.303 379.011L491.738 377.766C491.172 378.445 490.493 379.021 489.731 379.469Z" stroke="#2F3755"/><path d="M485.417 363.962 484.699 365.829C485.597 366.168 486.472 366.563 487.32 367.012L488.264 365.249C487.343 364.761 486.392 364.331 485.417 363.962Z" stroke="#2F3755"/><path d="M490.926 367.014 489.646 368.551C490.34 369.119 490.944 369.789 491.437 370.537L493.117 369.452C492.514 368.534 491.776 367.712 490.926 367.014Z" stroke="#2F3755"/><path d="M478.676 382.745 478.966 384.724C480.019 384.569 481.031 384.397 481.975 384.211L481.588 382.248C480.676 382.428 479.696 382.595 478.676 382.745Z" stroke="#2F3755"/><path d="M467.394 360.595C468.34 361.028 469.31 361.405 470.3 361.725L470.927 359.826C470.011 359.53 469.113 359.182 468.237 358.782Z" stroke="#2F3755"/><path d="M469.914 385.597 469.798 383.6C468.806 383.657 467.81 383.704 466.817 383.743L466.896 385.741C467.9 385.703 468.909 385.655 469.914 385.597Z" stroke="#2F3755"/><path d="M470.798 344.305 471.476 346.187C472.336 345.877 473.275 345.583 474.267 345.314L473.743 343.384C472.699 343.667 471.708 343.977 470.798 344.305Z" stroke="#2F3755"/><path d="M472.933 385.391C473.951 385.309 474.96 385.215 475.951 385.107L475.734 383.118C474.761 383.225 473.771 383.317 472.772 383.397Z" stroke="#2F3755"/><path d="M479.573 362.152 479.066 364.087C480.029 364.339 480.987 364.602 481.924 364.887L482.504 362.973C481.544 362.681 480.56 362.411 479.573 362.152Z" stroke="#2F3755"/><path d="M491.77 315.815C489.322 315.815 487.338 317.8 487.338 320.247 487.338 322.695 489.323 324.679 491.77 324.679 494.218 324.679 496.202 322.695 496.202 320.247 496.212 317.81 494.245 315.826 491.807 315.815 491.795 315.815 491.782 315.815 491.77 315.815ZM491.77 322.679C490.427 322.679 489.338 321.59 489.338 320.247 489.338 318.904 490.427 317.815 491.77 317.815 493.113 317.815 494.202 318.904 494.202 320.247 494.216 321.576 493.151 322.665 491.822 322.679 491.805 322.68 491.787 322.68 491.77 322.679Z" stroke="#2F3755"/><path d="M435.279 359.205C435.279 362.237 437.738 364.696 440.77 364.696 443.803 364.696 446.261 362.238 446.261 359.205 446.262 356.172 443.803 353.714 440.771 353.714 440.77 353.714 440.77 353.714 440.77 353.714 437.75 353.702 435.292 356.139 435.279 359.159 435.279 359.174 435.279 359.19 435.279 359.205ZM444.261 359.205C444.261 361.133 442.698 362.696 440.771 362.696 438.842 362.696 437.279 361.133 437.279 359.205 437.279 357.277 438.842 355.714 440.77 355.714 440.77 355.714 440.77 355.714 440.77 355.714 442.678 355.693 444.241 357.223 444.261 359.13 444.262 359.155 444.262 359.18 444.261 359.205Z" stroke="#2F3755"/></g></svg>