<svg width="96" height="96" xmlns="http://www.w3.org/2000/svg" xmlns:xlink="http://www.w3.org/1999/xlink" xml:space="preserve" overflow="hidden"><g transform="translate(-346 -190)"><path d="M416 205.567 416 199 372 199 372 205.567 360 205.567 360 225.867C360.053 230.923 362.025 235.77 365.517 239.427 370.941 245.05 377.382 247.613 386.972 247.965L387.816 248.916C388.89 250.071 389.613 251.508 389.9 253.059 389.969 253.509 390.003 253.963 390 254.418L390 266 386 266C383.24 266.003 381.003 268.24 381 271L378 271C375.241 271.007 373.007 273.241 373 276L373 278 415 278 415 276C414.995 273.241 412.759 271.005 410 271L407 271C406.997 268.24 404.76 266.003 402 266L398 266 398 254.518C398 253.837 398.081 253.159 398.241 252.498 398.576 251.229 399.214 250.06 400.1 249.092L401.081 247.967C410.747 247.635 417.229 245.067 422.681 239.418 426.17 235.762 428.14 230.917 428.192 225.864L428.192 205.564ZM366.962 238.041C363.847 234.743 362.078 230.4 362 225.864L362 207.564 372 207.564 372 224.51C372 228.05 372.985 231.519 374.845 234.531L374.867 234.518C375.565 235.636 376.362 236.691 377.246 237.669L377.246 237.669C378.713 239.357 380.214 240.815 381.666 242.225L382.356 242.896C382.929 243.457 383.512 244.071 384.137 244.773L385.101 245.858C377.059 245.277 371.685 242.937 366.962 238.041ZM410 273 410 273C411.655 273.005 412.995 274.345 413 276L375 276 375 276C375.006 274.346 376.346 273.006 378 273L410 273ZM402 268C403.657 268 405 269.343 405 271L383 271C383 269.343 384.343 268 386 268L391 268 397 268ZM398.594 247.776C397.495 248.986 396.705 250.445 396.294 252.027 396.096 252.842 395.995 253.679 395.994 254.518L395.994 266 392 266 392 254.418C392 253.857 391.956 253.296 391.867 252.742 391.522 250.815 390.635 249.025 389.31 247.584L385.63 243.444C384.974 242.706 384.36 242.059 383.752 241.465L383.058 240.791C381.636 239.409 380.166 237.981 378.707 236.306 377.98 235.498 377.309 234.642 376.7 233.742L376.555 233.493C374.886 230.794 374.002 227.683 374 224.51L374 201 414 201 414 206.488 413.9 212.606 413.9 224.606C413.898 227.779 413.014 230.89 411.345 233.589L411.209 233.813C410.859 234.313 409.801 235.713 409.129 236.473 407.892 237.926 406.57 239.304 405.169 240.6 403.933 241.783 402.722 243.051 401.569 244.369ZM426.194 225.864C426.117 230.397 424.349 234.738 421.238 238.035 416.477 242.97 411.053 245.312 402.912 245.871L403.078 245.681C404.189 244.408 405.358 243.181 406.552 242.041 408.003 240.703 409.372 239.279 410.652 237.777 411.534 236.793 412.331 235.735 413.034 234.616L413.059 234.631C414.918 231.619 415.901 228.149 415.9 224.61L415.9 212.623 415.983 207.567 426.194 207.567Z" stroke="#2F3755"/></g></svg>